<mxfile host="app.diagrams.net" modified="2024-07-03T16:20:15.284Z" agent="Mozilla/5.0 (Windows NT 10.0; Win64; x64) AppleWebKit/537.36 (KHTML, like Gecko) Chrome/125.0.0.0 Safari/537.36" etag="pQJfqFvm77821iV2zTh-" version="24.6.4" type="device">
  <diagram name="Page-1" id="FCHFxe1kG_JcjlVq0kdj">
    <mxGraphModel dx="1434" dy="876" grid="1" gridSize="10" guides="1" tooltips="1" connect="1" arrows="1" fold="1" page="1" pageScale="1" pageWidth="827" pageHeight="1169" math="0" shadow="0">
      <root>
        <mxCell id="0" />
        <mxCell id="1" parent="0" />
        <mxCell id="1Dfgl92mjE_H1IsoLuje-1" value="Case" style="ellipse;whiteSpace=wrap;html=1;aspect=fixed;" vertex="1" parent="1">
          <mxGeometry x="130" y="120" width="80" height="80" as="geometry" />
        </mxCell>
        <mxCell id="1Dfgl92mjE_H1IsoLuje-2" value="Skin" style="ellipse;whiteSpace=wrap;html=1;aspect=fixed;" vertex="1" parent="1">
          <mxGeometry x="540" y="120" width="80" height="80" as="geometry" />
        </mxCell>
        <mxCell id="1Dfgl92mjE_H1IsoLuje-3" value="Key" style="ellipse;whiteSpace=wrap;html=1;aspect=fixed;" vertex="1" parent="1">
          <mxGeometry x="130" y="340" width="80" height="80" as="geometry" />
        </mxCell>
        <mxCell id="1Dfgl92mjE_H1IsoLuje-4" value="Pattern" style="ellipse;whiteSpace=wrap;html=1;aspect=fixed;" vertex="1" parent="1">
          <mxGeometry x="540" y="340" width="80" height="80" as="geometry" />
        </mxCell>
        <mxCell id="1Dfgl92mjE_H1IsoLuje-6" value="" style="endArrow=classic;html=1;rounded=0;entryX=1;entryY=0.5;entryDx=0;entryDy=0;exitX=0;exitY=0.5;exitDx=0;exitDy=0;strokeColor=default;strokeWidth=1;startArrow=none;startFill=0;endFill=1;" edge="1" parent="1" source="1Dfgl92mjE_H1IsoLuje-2" target="1Dfgl92mjE_H1IsoLuje-1">
          <mxGeometry width="50" height="50" relative="1" as="geometry">
            <mxPoint x="480" y="190" as="sourcePoint" />
            <mxPoint x="290" y="210" as="targetPoint" />
          </mxGeometry>
        </mxCell>
        <mxCell id="1Dfgl92mjE_H1IsoLuje-7" value="Belongs to case&lt;div&gt;cases : Array&amp;lt;int&amp;gt;&lt;/div&gt;" style="edgeLabel;html=1;align=center;verticalAlign=middle;resizable=0;points=[];" vertex="1" connectable="0" parent="1Dfgl92mjE_H1IsoLuje-6">
          <mxGeometry x="0.1576" relative="1" as="geometry">
            <mxPoint as="offset" />
          </mxGeometry>
        </mxCell>
        <mxCell id="1Dfgl92mjE_H1IsoLuje-8" value="" style="endArrow=none;html=1;rounded=0;entryX=0.5;entryY=1;entryDx=0;entryDy=0;exitX=0.5;exitY=0;exitDx=0;exitDy=0;endFill=0;startArrow=classic;startFill=1;" edge="1" parent="1" source="1Dfgl92mjE_H1IsoLuje-4" target="1Dfgl92mjE_H1IsoLuje-2">
          <mxGeometry width="50" height="50" relative="1" as="geometry">
            <mxPoint x="420" y="350" as="sourcePoint" />
            <mxPoint x="470" y="300" as="targetPoint" />
          </mxGeometry>
        </mxCell>
        <mxCell id="1Dfgl92mjE_H1IsoLuje-9" value="Has pattern&lt;div&gt;pattern : Pattern&lt;/div&gt;" style="edgeLabel;html=1;align=center;verticalAlign=middle;resizable=0;points=[];" vertex="1" connectable="0" parent="1Dfgl92mjE_H1IsoLuje-8">
          <mxGeometry x="0.3714" y="-2" relative="1" as="geometry">
            <mxPoint as="offset" />
          </mxGeometry>
        </mxCell>
        <mxCell id="1Dfgl92mjE_H1IsoLuje-10" value="" style="endArrow=none;html=1;rounded=0;entryX=0.5;entryY=1;entryDx=0;entryDy=0;exitX=0.5;exitY=0;exitDx=0;exitDy=0;startArrow=classic;startFill=1;" edge="1" parent="1" source="1Dfgl92mjE_H1IsoLuje-3" target="1Dfgl92mjE_H1IsoLuje-1">
          <mxGeometry width="50" height="50" relative="1" as="geometry">
            <mxPoint x="390" y="470" as="sourcePoint" />
            <mxPoint x="440" y="420" as="targetPoint" />
          </mxGeometry>
        </mxCell>
        <mxCell id="1Dfgl92mjE_H1IsoLuje-11" value="Uses keys&lt;div&gt;keys : Array&amp;lt;int&amp;gt;&lt;/div&gt;" style="edgeLabel;html=1;align=center;verticalAlign=middle;resizable=0;points=[];" vertex="1" connectable="0" parent="1Dfgl92mjE_H1IsoLuje-10">
          <mxGeometry x="0.2143" y="-1" relative="1" as="geometry">
            <mxPoint as="offset" />
          </mxGeometry>
        </mxCell>
        <mxCell id="1Dfgl92mjE_H1IsoLuje-12" value="&amp;nbsp;id: int&lt;div&gt;name : String&lt;br&gt;price : Double&lt;/div&gt;" style="text;html=1;align=center;verticalAlign=middle;resizable=0;points=[];autosize=1;strokeColor=none;fillColor=none;" vertex="1" parent="1">
          <mxGeometry x="90" y="63" width="100" height="60" as="geometry" />
        </mxCell>
        <mxCell id="1Dfgl92mjE_H1IsoLuje-13" value="id : int&lt;div&gt;name : String&lt;/div&gt;&lt;div&gt;price : Double&lt;/div&gt;&lt;div&gt;float : Double&lt;/div&gt;&lt;div&gt;aquiredDate : Date&lt;/div&gt;" style="text;html=1;align=center;verticalAlign=middle;resizable=0;points=[];autosize=1;strokeColor=none;fillColor=none;" vertex="1" parent="1">
          <mxGeometry x="500" y="28" width="120" height="90" as="geometry" />
        </mxCell>
        <mxCell id="1Dfgl92mjE_H1IsoLuje-14" value="id : int&lt;div&gt;name : String&lt;/div&gt;&lt;div&gt;price : Double&lt;/div&gt;" style="text;html=1;align=center;verticalAlign=middle;resizable=0;points=[];autosize=1;strokeColor=none;fillColor=none;" vertex="1" parent="1">
          <mxGeometry x="100" y="413" width="100" height="60" as="geometry" />
        </mxCell>
        <mxCell id="1Dfgl92mjE_H1IsoLuje-15" value="id : int&lt;div&gt;pattern : int&lt;/div&gt;" style="text;html=1;align=center;verticalAlign=middle;resizable=0;points=[];autosize=1;strokeColor=none;fillColor=none;" vertex="1" parent="1">
          <mxGeometry x="530" y="423" width="80" height="40" as="geometry" />
        </mxCell>
      </root>
    </mxGraphModel>
  </diagram>
</mxfile>
